PathFileType	4	(x/y/z)	S04_PSF_T07.trc
DataRate	CameraRate	NumFrames	NumMarkers	Units	OrigDataRate	OrigDataStartFrame	OrigNumFrames
240	240	5	51	mm	240	161	427
Frame#	Time	Sternum			R.Acromium			L.Acromium			Top.Head			R.ASIS			L.ASIS			R.PSIS			L.PSIS			R.Great.Tro			L.Great.Tro			R.Iliac.Crest			L.Iliac.Crest			V.Sacral			R.Thigh.Upper.Post			R.Thigh.Lower.Ant			R.Thigh.Lower.Post			R.Thigh.Upper.Ant			R.Knee.Lat			R.Knee.Med			R.Shank.Upper.Post			R.Shank.Lower.Ant			R.Shank.Lower.Post			R.Shank.Upper.Ant			R.Ankle.Lat			R.Ankle.Med			R.Heel.Upper			R.Heel.Med			R.Heel.Lat			R.Toe.Lat			R.Toe.Med			R.Toe.Tip			L.Thigh.Upper.Post			L.Thigh.Lower.Ant			L.Thigh.Lower.Post			L.Thigh.Upper.Ant			L.Knee.Lat			L.Knee.Med			L.Shank.Upper.Post			L.Shank.Lower.Ant			L.Shank.Lower.Post			L.Shank.Upper.Ant			L.Ankle.Lat			L.Ankle.Med			L.Heel.Upper			L.Heel.Med			L.Heel.Lat			L.Toe.Lat			L.Toe.Med			L.Toe.Tip			Cervical.Spine			Back			
		X1	Y1	Z1	X2	Y2	Z2	X3	Y3	Z3	X4	Y4	Z4	X5	Y5	Z5	X6	Y6	Z6	X7	Y7	Z7	X8	Y8	Z8	X9	Y9	Z9	X10	Y10	Z10	X11	Y11	Z11	X12	Y12	Z12	X13	Y13	Z13	X14	Y14	Z14	X15	Y15	Z15	X16	Y16	Z16	X17	Y17	Z17	X18	Y18	Z18	X19	Y19	Z19	X20	Y20	Z20	X21	Y21	Z21	X22	Y22	Z22	X23	Y23	Z23	X24	Y24	Z24	X25	Y25	Z25	X26	Y26	Z26	X27	Y27	Z27	X28	Y28	Z28	X29	Y29	Z29	X30	Y30	Z30	X31	Y31	Z31	X32	Y32	Z32	X33	Y33	Z33	X34	Y34	Z34	X35	Y35	Z35	X36	Y36	Z36	X37	Y37	Z37	X38	Y38	Z38	X39	Y39	Z39	X40	Y40	Z40	X41	Y41	Z41	X42	Y42	Z42	X43	Y43	Z43	X44	Y44	Z44	X45	Y45	Z45	X46	Y46	Z46	X47	Y47	Z47	X48	Y48	Z48	X49	Y49	Z49	X50	Y50	Z50	X51	Y51	Z51	

161	0.66667	-565.31	1248.9	292.28	-714.2	1468.2	463.2	-689.59	1462.1	113.33	-686	1801.5	278.16	-576.56	971.59	405.55	-598.44	974.83	157	-798.04	1000.5	329.73	-794.9	1004.4	249.15	-647.99	894.88	480.45	-732.11	897.17	105.44	-669.24	1055.8	459.09	-697.49	1060.6	123.7	-818.11	961.16	290.87	-566.27	648	461.35	-470.93	598.49	416.4	-535.64	564.01	442.67	-499.04	703.03	442.12	-486.59	511.83	427.27	-523.75	496.12	306.52	-506.33	275.1	432.68	-429.97	213.63	382.06	-492.81	206.92	417.91	-445.02	281.82	406.33	-460.68	97.789	394.45	-446.42	117.35	304.83	-519.89	67.1	337.77	-507.7	39.537	306.06	-512.02	33.926	370.75	-342.76	49.493	413.68	-311.14	64.44	298.56	-251.21	94.202	344.86	-794.78	677.29	120.58	-736.19	566.07	113.12	-803.86	588.29	128.11	-731.62	656.21	102.95	-797.34	487	124.16	-780.57	465.54	246.92	-976.19	398.57	136.28	-975.7	287.87	129.57	-1018.8	334.03	142.98	-931.79	352.08	122.51	-1090.5	178.89	154.7	-1073.6	186.19	244.54	-1163.9	202.36	202.47	-1172.4	182.49	238.92	-1179.9	177.68	177.45	-1049.7	55.929	140.19	-1013.7	50.659	254.5	-966.86	39.431	206.4	-752.83	1519	289.29	-824.78	1261.1	261.13
162	0.67083	-559.17	1249.6	293	-708.34	1468.5	464.02	-683.91	1462.7	114.14	-680.52	1802	278.95	-570.37	972.22	406.36	-592.17	975.07	157.85	-791.93	1001	330.11	-788.67	1004.6	249.53	-641.99	895.6	481.09	-725.39	896.93	106.11	-663.05	1056.3	459.7	-690.93	1060.9	124.28	-811.95	961.52	291.33	-560.52	648.51	461.92	-465.34	598.79	416.92	-530.09	564.45	443.24	-493.16	703.38	442.68	-481.32	511.94	427.67	-518.61	496.58	306.97	-503.01	275.31	433.2	-427.49	213.1	382.17	-490.22	207	418.32	-441.78	281.45	406.51	-459.5	97.592	394.65	-445.16	117.12	305.06	-519.28	67.531	337.99	-507.41	39.92	306.19	-511.71	34.209	370.89	-342.11	48.031	413.69	-310.43	62.741	298.49	-250.03	91.643	344.75	-786.43	676.09	120.89	-726.91	565.42	112.78	-794.73	587	128.18	-723.13	655.63	102.95	-787.37	486.14	123.86	-769.93	464.1	246.62	-967.02	400.35	136.52	-968.3	289.7	129.33	-1010.5	336.47	143.13	-923.37	353.27	122.39	-1084.7	182.6	154.38	-1067.1	189.38	244.15	-1156.8	208.48	202.43	-1165.9	189.15	239.11	-1173.8	184.27	177.57	-1048	58	140.26	-1011.6	52.128	254.31	-965.72	39.107	206.12	-747.13	1519.4	290.16	-818.67	1261.3	261.89
163	0.675	-553.08	1250.2	293.69	-702.47	1469	464.83	-678.23	1463.2	114.94	-675.05	1802.5	279.73	-564.25	972.88	407.16	-585.96	975.34	158.7	-785.87	1001.6	330.48	-782.52	1004.9	249.89	-636.07	896.34	481.74	-718.72	896.71	106.78	-656.93	1056.8	460.3	-684.44	1061.3	124.86	-805.86	961.92	291.78	-554.91	649.02	462.5	-459.88	599.05	417.46	-524.7	564.88	443.8	-487.4	703.7	443.28	-476.19	512.04	428.09	-513.58	497.05	307.4	-499.81	275.52	433.7	-425.12	212.61	382.28	-487.75	207.09	418.7	-438.66	281.09	406.68	-458.41	97.436	394.82	-443.99	116.92	305.28	-518.72	67.929	338.19	-507.14	40.28	306.31	-511.41	34.48	371.02	-341.53	46.714	413.69	-309.77	61.164	298.4	-248.95	89.253	344.64	-778.03	674.91	121.19	-717.55	564.8	112.44	-785.5	585.73	128.25	-714.58	655.08	102.93	-777.23	485.3	123.57	-759.14	462.71	246.33	-957.6	402.16	136.75	-960.64	291.58	129.1	-1002.1	338.94	143.27	-914.73	354.5	122.27	-1078.7	186.42	154.06	-1060.3	192.64	243.76	-1149.4	214.68	202.39	-1159.1	195.89	239.28	-1167.3	190.97	177.69	-1046	60.28	140.3	-1009.1	53.784	254.09	-964.37	38.821	205.76	-741.42	1519.8	291.01	-812.6	1261.6	262.64
164	0.67917	-547.02	1250.9	294.36	-696.6	1469.4	465.62	-672.57	1463.9	115.72	-669.59	1803.1	280.51	-558.19	973.56	407.97	-579.83	975.66	159.56	-779.88	1002.1	330.85	-776.43	1005.2	250.26	-630.24	897.08	482.38	-712.12	896.53	107.46	-650.85	1057.4	460.88	-678.03	1061.7	125.44	-799.83	962.37	292.24	-549.44	649.5	463.07	-454.57	599.27	418.01	-519.47	565.29	444.36	-481.75	703.99	443.9	-471.22	512.13	428.51	-508.67	497.52	307.81	-496.75	275.74	434.17	-422.86	212.15	382.38	-485.39	207.2	419.06	-435.67	280.76	406.85	-457.4	97.317	394.97	-442.9	116.75	305.48	-518.22	68.295	338.37	-506.89	40.613	306.42	-511.13	34.736	371.14	-340.99	45.539	413.71	-309.18	59.702	298.3	-247.97	87.026	344.5	-769.58	673.74	121.48	-708.11	564.22	112.1	-776.21	584.48	128.32	-705.99	654.56	102.89	-766.96	484.48	123.29	-748.23	461.39	246.08	-947.94	404	136.96	-952.7	293.51	128.89	-993.34	341.45	143.4	-905.86	355.76	122.17	-1072.4	190.34	153.74	-1053.4	195.99	243.38	-1141.7	220.93	202.33	-1151.9	202.68	239.44	-1160.6	197.73	177.8	-1043.8	62.773	140.32	-1006.4	55.627	253.82	-962.76	38.59	205.33	-735.72	1520.2	291.86	-806.56	1262	263.37
165	0.68333	-540.99	1251.6	294.99	-690.71	1469.9	466.39	-666.93	1464.5	116.49	-664.14	1803.6	281.28	-552.2	974.26	408.76	-573.76	976.01	160.4	-773.94	1002.7	331.23	-770.41	1005.6	250.64	-624.48	897.83	483.01	-705.59	896.38	108.14	-644.83	1058	461.44	-671.72	1062.1	126.02	-793.87	962.86	292.7	-544.11	649.97	463.64	-449.41	599.45	418.56	-514.41	565.66	444.89	-476.23	704.23	444.54	-466.42	512.21	428.93	-503.9	497.98	308.21	-493.82	275.96	434.6	-420.72	211.71	382.46	-483.15	207.32	419.38	-432.81	280.44	407	-456.47	97.231	395.09	-441.9	116.6	305.66	-517.77	68.629	338.52	-506.66	40.917	306.52	-510.87	34.977	371.24	-340.51	44.501	413.72	-308.65	58.347	298.19	-247.08	84.958	344.34	-761.09	672.6	121.77	-698.62	563.7	111.76	-766.84	583.26	128.39	-697.36	654.08	102.84	-756.55	483.72	123.03	-737.21	460.14	245.87	-938.05	405.88	137.17	-944.51	295.48	128.7	-984.4	343.99	143.54	-896.78	357.06	122.08	-1065.8	194.36	153.43	-1046.1	199.4	243	-1133.7	227.19	202.28	-1144.4	209.46	239.58	-1153.5	204.52	177.91	-1041.3	65.48	140.3	-1003.4	57.654	253.5	-960.88	38.435	204.83	-730.03	1520.7	292.69	-800.56	1262.4	264.1
